<svg width="1440" height="1105" viewBox="0 0 1440 1105" fill="none" xmlns="http://www.w3.org/2000/svg">
<path d="M327.002 839.807C247.002 822.938 74.002 993.746 -3.99805 1070.91L-3.49805 1274.81H1475.5C1475.5 1174.49 1590 735.307 1388.5 735.307C1335.27 735.307 1281.5 769.807 1222.5 858.807C1163.5 947.807 1129.5 1080.81 830.502 981.807C724.981 946.869 599.502 1070.91 529.502 1070.91C452.325 1070.91 411.502 857.625 327.002 839.807Z" fill="#B80042" stroke="#B80042"/>
<path d="M54.9938 600.036C20.0159 598.941 0.4987 623.35 -14 642.382V1275.31H1479C1488.5 1109.41 1534.38 655.356 1513 647.807C1416.01 613.549 1356.88 912.162 1246.89 960.694C1136.9 1009.23 1132.9 920.727 1040.91 944.993C983.572 960.116 892.919 1054.01 793.428 1054.01C689.845 1054.01 627.443 903.598 560.948 903.598C494.454 903.598 398.463 1054.01 325.97 1054.01C256.345 1054.01 130.987 602.415 54.9938 600.036Z" fill="url(#paint0_linear)" stroke="#ED8F03" stroke-opacity="0.23"/>
<defs>
<linearGradient id="paint0_linear" x1="-14" y1="600" x2="605.578" y2="1762.1" gradientUnits="userSpaceOnUse">
<stop stop-color="#ED8F03"/>
<stop offset="1" stop-color="#ED8F03" stop-opacity="0"/>
</linearGradient>
</defs>
</svg>
