<svg width="35" height="35" viewBox="0 0 35 35" fill="none" xmlns="http://www.w3.org/2000/svg">
<circle cx="17.5002" cy="17.5" r="15.9783" fill="white"/>
<path d="M21.8516 10.4274C22.8161 9.88919 24.0344 10.2348 24.5726 11.1993C25.1109 12.1639 24.7653 13.3821 23.8008 13.9204L21.8516 10.4274ZM12.174 18.1182L11.3655 19.9475C10.6719 19.641 10.2113 18.9685 10.1762 18.211C10.141 17.4535 10.5372 16.7413 11.1994 16.3717L12.174 18.1182ZM23.6347 20.9968C24.645 21.4433 25.102 22.6243 24.6555 23.6346C24.209 24.6449 23.028 25.1019 22.0177 24.6554L23.6347 20.9968ZM23.8008 13.9204L13.1486 19.8647L11.1994 16.3717L21.8516 10.4274L23.8008 13.9204ZM12.9825 16.2889L23.6347 20.9968L22.0177 24.6554L11.3655 19.9475L12.9825 16.2889Z" fill="#D05C1A"/>
</svg>
