<svg width="40" height="40" viewBox="0 0 40 40" fill="none" xmlns="http://www.w3.org/2000/svg">
<g clip-path="url(#clip0)">
<circle cx="20" cy="20" r="18" fill="white"/>
<path d="M40 20C40 8.95451 31.0454 0 20 0C8.95451 0 0 8.95451 0 20C0 31.0454 8.95451 40 20 40C31.0454 40 40 31.0454 40 20ZM14.6291 20V16.1727H16.9745V13.8582C16.9745 10.7363 17.9073 8.48726 21.3254 8.48726H25.3909V12.3054H22.5291C21.0945 12.3054 20.769 13.2582 20.769 14.2563V16.1727H25.1799L24.5782 20H20.7692V31.5436H16.9745V20H14.6291Z" fill="#3B5998"/>
</g>
<defs>
<clipPath id="clip0">
<rect width="40" height="40" fill="white"/>
</clipPath>
</defs>
</svg>
