<svg width="40" height="40" viewBox="0 0 40 40" fill="none" xmlns="http://www.w3.org/2000/svg">
<g clip-path="url(#clip0)">
<path d="M8.86484 24.1725L7.4725 29.3703L2.38352 29.478C0.862656 26.6571 0 23.4297 0 20C0 16.6835 0.806563 13.556 2.23625 10.8022H2.23734L6.76797 11.6328L8.75266 16.1362C8.33726 17.3473 8.11086 18.6473 8.11086 20C8.11101 21.4681 8.37695 22.8748 8.86484 24.1725Z" fill="#FBBB00"/>
<path d="M39.6506 16.2637C39.8802 17.4736 40 18.723 40 20C40 21.4319 39.8495 22.8286 39.5627 24.1759C38.5891 28.7605 36.0451 32.7637 32.5209 35.5967L32.5199 35.5956L26.8133 35.3045L26.0056 30.2627C28.3441 28.8912 30.1716 26.7451 31.1342 24.1759H20.4397V16.2637H31.2902H39.6506Z" fill="#518EF8"/>
<path d="M32.5198 35.5956L32.5209 35.5967C29.0935 38.3516 24.7396 40 20 40C12.3835 40 5.76159 35.7429 2.38354 29.478L8.86487 24.1726C10.5539 28.6802 14.9022 31.8891 20 31.8891C22.1912 31.8891 24.244 31.2967 26.0055 30.2627L32.5198 35.5956Z" fill="#28B446"/>
<path d="M32.7658 4.60437L26.2866 9.90875C24.4636 8.76922 22.3086 8.11094 19.9998 8.11094C14.7866 8.11094 10.3569 11.467 8.75257 16.1362L2.23718 10.8022H2.23608C5.56468 4.38461 12.2701 0 19.9998 0C24.8526 0 29.302 1.72859 32.7658 4.60437Z" fill="#F14336"/>
</g>
<defs>
<clipPath id="clip0">
<rect width="40" height="40" fill="white"/>
</clipPath>
</defs>
</svg>
