<svg width="1440" height="900" viewBox="0 0 1440 900" fill="none" xmlns="http://www.w3.org/2000/svg">
<path d="M301.002 453.853C221.002 436.984 48.0018 607.793 -29.9982 684.959V1035.84H1449C1449 935.518 1564 349.353 1362.5 349.353C1309.27 349.353 1255.5 383.853 1196.5 472.853C1137.5 561.853 1103.5 694.853 804.502 595.853C698.981 560.915 573.502 684.959 503.502 684.959C426.325 684.959 385.502 471.671 301.002 453.853Z" fill="#B80042" stroke="#B80042"/>
<path d="M28.9938 214.082C-5.98413 212.987 -25.5013 237.396 -40 256.428L-39.9999 1037.35H1453C1462.5 871.456 1508.38 269.403 1487 261.853C1390.01 227.595 1330.88 526.209 1220.89 574.741C1110.9 623.273 1106.9 534.773 1014.91 559.039C957.572 574.163 866.919 668.057 767.428 668.057C663.845 668.057 601.443 517.644 534.948 517.644C468.454 517.644 372.463 668.057 299.97 668.057C230.345 668.057 104.987 216.461 28.9938 214.082Z" fill="url(#paint0_linear)" stroke="#ED8F03" stroke-opacity="0.23"/>
<defs>
<linearGradient id="paint0_linear" x1="-40" y1="214.046" x2="791.41" y2="1493.14" gradientUnits="userSpaceOnUse">
<stop stop-color="#ED8F03"/>
<stop offset="1" stop-color="#ED8F03" stop-opacity="0"/>
</linearGradient>
</defs>
</svg>
