<?xml version="1.0" encoding="utf-8"?>
<!-- Generator: Adobe Illustrator 16.0.0, SVG Export Plug-In . SVG Version: 6.00 Build 0)  -->
<!DOCTYPE svg PUBLIC "-//W3C//DTD SVG 1.1//EN" "http://www.w3.org/Graphics/SVG/1.1/DTD/svg11.dtd">
<svg version="1.1" id="Calque_1" xmlns="http://www.w3.org/2000/svg" xmlns:xlink="http://www.w3.org/1999/xlink" x="0px" y="0px"
	 width="630px" height="180px" viewBox="0 0 630 180" enable-background="new 0 0 630 180" xml:space="preserve">
<g>
	<radialGradient id="SVGID_1_" cx="334.9785" cy="84.7046" r="258.9026" gradientUnits="userSpaceOnUse">
		<stop  offset="0" style="stop-color:#ED8F06"/>
		<stop  offset="0.3117" style="stop-color:#EB8C09"/>
		<stop  offset="0.5546" style="stop-color:#E68310"/>
		<stop  offset="0.7742" style="stop-color:#DD7417"/>
		<stop  offset="0.9789" style="stop-color:#D15F1C"/>
		<stop  offset="0.995" style="stop-color:#D05D1C"/>
	</radialGradient>
	<path fill="url(#SVGID_1_)" d="M108.099,43.203H87.673v67.146c0,3.865-0.862,6.734-2.587,8.605
		c-1.719,1.867-3.947,2.804-6.68,2.804c-2.776,0-5.035-0.949-6.778-2.835c-1.744-1.896-2.615-4.746-2.615-8.574V43.203H48.585
		c-3.193,0-5.566-0.702-7.126-2.11c-1.554-1.41-2.33-3.267-2.33-5.578c0-2.397,0.806-4.292,2.429-5.672
		c1.617-1.398,3.962-2.085,7.027-2.085h59.514c3.238,0,5.64,0.715,7.218,2.144c1.577,1.43,2.364,3.301,2.364,5.614
		c0,2.311-0.797,4.168-2.398,5.578C113.688,42.501,111.29,43.203,108.099,43.203z"/>
	<radialGradient id="SVGID_2_" cx="334.9834" cy="84.7065" r="258.9074" gradientUnits="userSpaceOnUse">
		<stop  offset="0" style="stop-color:#ED8F06"/>
		<stop  offset="0.3117" style="stop-color:#EB8C09"/>
		<stop  offset="0.5546" style="stop-color:#E68310"/>
		<stop  offset="0.7742" style="stop-color:#DD7417"/>
		<stop  offset="0.9789" style="stop-color:#D15F1C"/>
		<stop  offset="0.995" style="stop-color:#D05D1C"/>
	</radialGradient>
	<path fill="url(#SVGID_2_)" d="M139.741,96.918v14.379c0,3.487-0.813,6.097-2.454,7.843s-3.72,2.618-6.238,2.618
		c-2.482,0-4.517-0.881-6.118-2.643c-1.601-1.763-2.395-4.371-2.395-7.818V63.381c0-7.737,2.796-11.603,8.386-11.603
		c2.857,0,4.914,0.904,6.177,2.71c1.256,1.814,1.954,4.478,2.082,8.014c2.057-3.536,4.172-6.2,6.337-8.014
		c2.163-1.806,5.051-2.71,8.662-2.71c3.618,0,7.129,0.904,10.535,2.71c3.401,1.814,5.104,4.2,5.104,7.19
		c0,2.101-0.724,3.832-2.175,5.203c-1.449,1.363-3.015,2.044-4.696,2.044c-0.633,0-2.159-0.381-4.573-1.17
		c-2.417-0.77-4.548-1.161-6.397-1.161c-2.519,0-4.582,0.66-6.18,1.985c-1.595,1.322-2.835,3.29-3.717,5.892
		c-0.887,2.607-1.495,5.714-1.83,9.3C139.915,87.366,139.741,91.747,139.741,96.918z"/>
	<radialGradient id="SVGID_3_" cx="334.9639" cy="84.7051" r="258.8791" gradientUnits="userSpaceOnUse">
		<stop  offset="0" style="stop-color:#ED8F06"/>
		<stop  offset="0.3117" style="stop-color:#EB8C09"/>
		<stop  offset="0.5546" style="stop-color:#E68310"/>
		<stop  offset="0.7742" style="stop-color:#DD7417"/>
		<stop  offset="0.9789" style="stop-color:#D15F1C"/>
		<stop  offset="0.995" style="stop-color:#D05D1C"/>
	</radialGradient>
	<path fill="url(#SVGID_3_)" d="M187.912,43.774c-2.394,0-4.445-0.732-6.148-2.208c-1.7-1.469-2.553-3.552-2.553-6.24
		c0-2.44,0.872-4.446,2.618-6.024c1.744-1.573,3.769-2.361,6.083-2.361c2.225,0,4.201,0.71,5.926,2.143
		c1.722,1.429,2.581,3.505,2.581,6.243c0,2.649-0.837,4.717-2.519,6.211C192.219,43.028,190.224,43.774,187.912,43.774z
		 M196.419,61.552v49.745c0,3.447-0.819,6.056-2.456,7.818c-1.639,1.762-3.723,2.643-6.243,2.643c-2.519,0-4.569-0.899-6.142-2.712
		c-1.579-1.809-2.367-4.386-2.367-7.749V62.06c0-3.409,0.789-5.975,2.367-7.695c1.573-1.725,3.623-2.586,6.142-2.586
		c2.52,0,4.604,0.861,6.243,2.586C195.6,56.085,196.419,58.489,196.419,61.552z"/>
	<radialGradient id="SVGID_4_" cx="334.9795" cy="84.7056" r="258.8987" gradientUnits="userSpaceOnUse">
		<stop  offset="0" style="stop-color:#ED8F06"/>
		<stop  offset="0.3117" style="stop-color:#EB8C09"/>
		<stop  offset="0.5546" style="stop-color:#E68310"/>
		<stop  offset="0.7742" style="stop-color:#DD7417"/>
		<stop  offset="0.9789" style="stop-color:#D15F1C"/>
		<stop  offset="0.995" style="stop-color:#D05D1C"/>
	</radialGradient>
	<path fill="url(#SVGID_4_)" d="M230.085,61.429v2.078c3.239-3.991,6.601-6.922,10.092-8.791c3.483-1.871,7.436-2.812,11.85-2.812
		c5.295,0,10.173,1.37,14.627,4.104c4.452,2.727,7.966,6.718,10.557,11.974c2.585,5.253,3.881,11.472,3.881,18.661
		c0,5.296-0.751,10.16-2.24,14.591c-1.493,4.441-3.539,8.148-6.151,11.167c-2.604,3.003-5.688,5.312-9.229,6.931
		c-3.556,1.616-7.368,2.426-11.444,2.426c-4.917,0-9.046-0.993-12.387-2.959c-3.345-1.977-6.523-4.873-9.555-8.698v25.838
		c0,7.573-2.748,11.351-8.256,11.351c-3.235,0-5.385-0.977-6.43-2.932c-1.052-1.95-1.576-4.799-1.576-8.54V61.552
		c0-3.272,0.71-5.727,2.141-7.343c1.433-1.616,3.387-2.431,5.866-2.431c2.436,0,4.422,0.834,5.957,2.493
		C229.322,55.93,230.085,58.314,230.085,61.429z M263.816,86.455c0-4.542-0.691-8.442-2.08-11.694
		c-1.386-3.254-3.31-5.758-5.773-7.505c-2.456-1.744-5.174-2.615-8.158-2.615c-4.755,0-8.755,1.869-12.011,5.614
		c-3.264,3.74-4.886,9.25-4.886,16.518c0,6.85,1.616,12.179,4.855,15.983c3.235,3.797,7.246,5.705,12.042,5.705
		c2.854,0,5.504-0.835,7.941-2.488c2.436-1.667,4.393-4.16,5.863-7.47C263.081,95.179,263.816,91.164,263.816,86.455z"/>
	<radialGradient id="SVGID_5_" cx="334.9727" cy="84.7065" r="258.9142" gradientUnits="userSpaceOnUse">
		<stop  offset="0" style="stop-color:#ED8F06"/>
		<stop  offset="0.3117" style="stop-color:#EB8C09"/>
		<stop  offset="0.5546" style="stop-color:#E68310"/>
		<stop  offset="0.7742" style="stop-color:#DD7417"/>
		<stop  offset="0.9789" style="stop-color:#D15F1C"/>
		<stop  offset="0.995" style="stop-color:#D05D1C"/>
	</radialGradient>
	<path fill="url(#SVGID_5_)" d="M463.979,61.296v2.085c3.025-3.991,6.335-6.923,9.931-8.798c3.592-1.865,7.718-2.805,12.387-2.805
		c4.536,0,8.595,0.99,12.165,2.966c3.573,1.972,6.241,4.771,8.01,8.378c1.135,2.107,1.867,4.376,2.209,6.816
		c0.328,2.438,0.502,5.545,0.502,9.325v32.032c0,3.447-0.788,6.056-2.364,7.818c-1.578,1.762-3.626,2.643-6.148,2.643
		c-2.563,0-4.645-0.899-6.238-2.712c-1.601-1.809-2.398-4.386-2.398-7.749v-28.68c0-5.685-0.792-10.026-2.364-13.029
		c-1.576-3.001-4.721-4.504-9.428-4.504c-3.064,0-5.859,0.912-8.381,2.74c-2.521,1.83-4.377,4.337-5.545,7.533
		c-0.844,2.566-1.266,7.354-1.266,14.374v21.567c0,3.487-0.81,6.097-2.426,7.843c-1.619,1.746-3.711,2.618-6.272,2.618
		c-2.482,0-4.517-0.899-6.118-2.712c-1.594-1.809-2.395-4.386-2.395-7.749V61.552c0-3.272,0.713-5.727,2.146-7.343
		c1.428-1.616,3.382-2.431,5.863-2.431c1.514,0,2.873,0.357,4.095,1.075c1.22,0.713,2.196,1.786,2.932,3.211
		C463.609,57.498,463.979,59.242,463.979,61.296z"/>
	<radialGradient id="SVGID_6_" cx="334.9736" cy="84.7065" r="258.9109" gradientUnits="userSpaceOnUse">
		<stop  offset="0" style="stop-color:#ED8F06"/>
		<stop  offset="0.3117" style="stop-color:#EB8C09"/>
		<stop  offset="0.5546" style="stop-color:#E68310"/>
		<stop  offset="0.7742" style="stop-color:#DD7417"/>
		<stop  offset="0.9789" style="stop-color:#D15F1C"/>
		<stop  offset="0.995" style="stop-color:#D05D1C"/>
	</radialGradient>
	<path fill="url(#SVGID_6_)" d="M590.759,86.771c0,5.131-0.802,9.853-2.396,14.183c-1.597,4.327-3.915,8.048-6.937,11.159
		c-3.027,3.115-6.642,5.494-10.845,7.156c-4.201,1.657-8.936,2.488-14.185,2.488c-5.212,0-9.896-0.837-14.06-2.519
		c-4.157-1.688-7.761-4.096-10.808-7.222c-3.049-3.131-5.36-6.826-6.937-11.095c-1.576-4.266-2.364-8.983-2.364-14.152
		c0-5.208,0.794-9.986,2.396-14.317c1.598-4.325,3.887-8.025,6.874-11.089c2.984-3.073,6.599-5.435,10.839-7.093
		c4.248-1.659,8.936-2.493,14.06-2.493c5.212,0,9.939,0.843,14.185,2.522c4.243,1.68,7.879,4.076,10.91,7.189
		c3.023,3.114,5.322,6.803,6.896,11.091C589.968,76.869,590.759,81.598,590.759,86.771z M573.486,86.771
		c0-7.021-1.546-12.482-4.636-16.396c-3.09-3.909-7.241-5.863-12.453-5.863c-3.362,0-6.322,0.873-8.885,2.622
		c-2.563,1.742-4.542,4.315-5.931,7.718c-1.384,3.406-2.079,7.378-2.079,11.919c0,4.492,0.687,8.425,2.051,11.789
		c1.362,3.362,3.319,5.928,5.86,7.728c2.544,1.775,5.54,2.671,8.983,2.671c5.212,0,9.363-1.961,12.453-5.888
		C571.94,99.14,573.486,93.701,573.486,86.771z"/>
	<g>
		<radialGradient id="SVGID_7_" cx="334.9824" cy="84.7046" r="258.8907" gradientUnits="userSpaceOnUse">
			<stop  offset="0" style="stop-color:#ED8F06"/>
			<stop  offset="0.3117" style="stop-color:#EB8C09"/>
			<stop  offset="0.5546" style="stop-color:#E68310"/>
			<stop  offset="0.7742" style="stop-color:#DD7417"/>
			<stop  offset="0.9789" style="stop-color:#D15F1C"/>
			<stop  offset="0.995" style="stop-color:#D05D1C"/>
		</radialGradient>
		<path fill="url(#SVGID_7_)" d="M386.295,90.993h35.059c-0.043,3.909-0.859,7.356-2.466,10.34c-1.591,2.983-3.716,5.23-6.36,6.744
			c-2.651,1.512-5.57,2.271-8.766,2.271c-2.146,0-4.109-0.246-5.883-0.724c-1.768-0.483-3.486-1.247-5.15-2.274
			c-1.664-1.029-3.195-2.137-4.6-3.306c-1.399-1.174-3.211-2.774-5.444-4.79c-0.925-0.754-2.233-1.136-3.94-1.136
			c-1.843,0-3.332,0.474-4.467,1.449c-1.139,0.971-1.707,2.332-1.707,4.097c0,1.549,0.635,3.376,1.902,5.454
			c1.27,2.079,3.186,4.076,5.748,5.988c2.561,1.913,5.776,3.502,9.648,4.759c3.872,1.266,8.33,1.892,13.368,1.892
			c11.513,0,20.46-3.148,26.853-9.461c6.391-6.298,9.583-14.842,9.583-25.653c0-5.08-0.781-9.804-2.364-14.154
			c-1.569-4.35-3.871-8.082-6.898-11.193c-3.014-3.108-6.732-5.491-11.156-7.15c-4.417-1.665-9.326-2.496-14.705-2.496
			c-7.005,0-13.017,1.416-18.03,4.26c-5.013,2.835-8.761,6.499-11.255,11.006c-2.504,4.492-3.742,9.074-3.742,13.735
			c0,4.332,1.291,7.133,3.872,8.415C377.973,90.354,381.611,90.993,386.295,90.993z M418.291,86.188L387.59,75.527
			c1.854-4.028,4.5-6.606,7.932-7.739c3.432-1.13,7.353-0.928,11.779,0.61c4.217,1.463,7.318,3.715,9.297,6.756
			C418.577,78.196,419.143,81.873,418.291,86.188z"/>
		<g>
			<radialGradient id="SVGID_8_" cx="334.9727" cy="84.7046" r="258.917" gradientUnits="userSpaceOnUse">
				<stop  offset="0" style="stop-color:#ED8F06"/>
				<stop  offset="0.3117" style="stop-color:#EB8C09"/>
				<stop  offset="0.5546" style="stop-color:#E68310"/>
				<stop  offset="0.7742" style="stop-color:#DD7417"/>
				<stop  offset="0.9789" style="stop-color:#D15F1C"/>
				<stop  offset="0.995" style="stop-color:#D05D1C"/>
			</radialGradient>
			<path fill-rule="evenodd" clip-rule="evenodd" fill="url(#SVGID_8_)" d="M406.305,145.519c0.611,2.051,2.768,3.216,4.815,2.608
				l1.485-0.449c2.051-0.611,3.217-2.771,2.609-4.824l-5.765-19.296c-0.614-2.048-2.77-3.215-4.819-2.604l-1.49,0.444
				c-2.051,0.614-3.211,2.77-2.6,4.82L406.305,145.519z"/>
			<radialGradient id="SVGID_9_" cx="334.9824" cy="84.6997" r="258.9005" gradientUnits="userSpaceOnUse">
				<stop  offset="0" style="stop-color:#ED8F06"/>
				<stop  offset="0.3117" style="stop-color:#EB8C09"/>
				<stop  offset="0.5546" style="stop-color:#E68310"/>
				<stop  offset="0.7742" style="stop-color:#DD7417"/>
				<stop  offset="0.9789" style="stop-color:#D15F1C"/>
				<stop  offset="0.995" style="stop-color:#D05D1C"/>
			</radialGradient>
			<path fill="url(#SVGID_9_)" d="M416.447,131.8c0.635,2.495-0.869,5.016-3.36,5.644l0,0c-2.488,0.64-5.013-0.868-5.646-3.357
				l-1.524-6.005c-0.636-2.489,0.866-5.02,3.36-5.65l0,0c2.488-0.633,5.02,0.879,5.646,3.366L416.447,131.8z"/>
			<g>
				<radialGradient id="SVGID_10_" cx="334.9785" cy="84.6909" r="258.9235" gradientUnits="userSpaceOnUse">
					<stop  offset="0" style="stop-color:#ED8F06"/>
					<stop  offset="0.3117" style="stop-color:#EB8C09"/>
					<stop  offset="0.5546" style="stop-color:#E68310"/>
					<stop  offset="0.7742" style="stop-color:#DD7417"/>
					<stop  offset="0.9789" style="stop-color:#D15F1C"/>
					<stop  offset="0.995" style="stop-color:#D05D1C"/>
				</radialGradient>
				<path fill-rule="evenodd" clip-rule="evenodd" fill="url(#SVGID_10_)" d="M404.027,127.628c0.103,0.868-0.514,1.662-1.389,1.769
					l-9.463,1.132c-0.869,0.103-1.662-0.516-1.768-1.387l0,0c-0.1-0.875,0.521-1.662,1.389-1.769l9.462-1.136
					C403.135,126.135,403.923,126.753,404.027,127.628L404.027,127.628z"/>
				<radialGradient id="SVGID_11_" cx="334.9883" cy="84.7051" r="258.8757" gradientUnits="userSpaceOnUse">
					<stop  offset="0" style="stop-color:#ED8F06"/>
					<stop  offset="0.3117" style="stop-color:#EB8C09"/>
					<stop  offset="0.5546" style="stop-color:#E68310"/>
					<stop  offset="0.7742" style="stop-color:#DD7417"/>
					<stop  offset="0.9789" style="stop-color:#D15F1C"/>
					<stop  offset="0.995" style="stop-color:#D05D1C"/>
				</radialGradient>
				<path fill-rule="evenodd" clip-rule="evenodd" fill="url(#SVGID_11_)" d="M394.504,129.116
					c-0.105,0.878-0.895,1.495-1.766,1.396l-9.465-1.101c-0.871-0.103-1.495-0.888-1.395-1.765l0,0
					c0.102-0.869,0.889-1.489,1.76-1.391l9.47,1.104C393.977,127.457,394.6,128.245,394.504,129.116L394.504,129.116z"/>
			</g>
			<g>
				<radialGradient id="SVGID_12_" cx="334.9766" cy="84.6807" r="258.935" gradientUnits="userSpaceOnUse">
					<stop  offset="0" style="stop-color:#ED8F06"/>
					<stop  offset="0.3117" style="stop-color:#EB8C09"/>
					<stop  offset="0.5546" style="stop-color:#E68310"/>
					<stop  offset="0.7742" style="stop-color:#DD7417"/>
					<stop  offset="0.9789" style="stop-color:#D15F1C"/>
					<stop  offset="0.995" style="stop-color:#D05D1C"/>
				</radialGradient>
				<path fill-rule="evenodd" clip-rule="evenodd" fill="url(#SVGID_12_)" d="M428.74,132.337c0.354-0.807-0.009-1.737-0.813-2.097
					l-8.725-3.847c-0.799-0.349-1.736,0.015-2.096,0.818l0,0c-0.348,0.807,0.012,1.744,0.818,2.095l8.718,3.836
					C427.453,133.504,428.387,133.137,428.74,132.337L428.74,132.337z"/>
				<radialGradient id="SVGID_13_" cx="334.9893" cy="84.7051" r="258.8746" gradientUnits="userSpaceOnUse">
					<stop  offset="0" style="stop-color:#ED8F06"/>
					<stop  offset="0.3117" style="stop-color:#EB8C09"/>
					<stop  offset="0.5546" style="stop-color:#E68310"/>
					<stop  offset="0.7742" style="stop-color:#DD7417"/>
					<stop  offset="0.9789" style="stop-color:#D15F1C"/>
					<stop  offset="0.995" style="stop-color:#D05D1C"/>
				</radialGradient>
				<path fill-rule="evenodd" clip-rule="evenodd" fill="url(#SVGID_13_)" d="M420.061,128.14c0.155-0.866-0.416-1.693-1.279-1.853
					l-9.373-1.703c-0.869-0.157-1.695,0.419-1.853,1.277l0,0c-0.155,0.866,0.415,1.691,1.28,1.847l9.375,1.707
					C419.076,129.565,419.905,128.999,420.061,128.14L420.061,128.14z"/>
			</g>
			<g>
				<radialGradient id="SVGID_14_" cx="334.9766" cy="84.687" r="258.9274" gradientUnits="userSpaceOnUse">
					<stop  offset="0" style="stop-color:#ED8F06"/>
					<stop  offset="0.3117" style="stop-color:#EB8C09"/>
					<stop  offset="0.5546" style="stop-color:#E68310"/>
					<stop  offset="0.7742" style="stop-color:#DD7417"/>
					<stop  offset="0.9789" style="stop-color:#D15F1C"/>
					<stop  offset="0.995" style="stop-color:#D05D1C"/>
				</radialGradient>
				<path fill-rule="evenodd" clip-rule="evenodd" fill="url(#SVGID_14_)" d="M429.014,150.584
					c-0.205,0.853-1.061,1.381-1.918,1.176l-9.262-2.224c-0.857-0.205-1.385-1.062-1.18-1.917l0,0
					c0.211-0.856,1.066-1.378,1.916-1.174l9.271,2.222C428.693,148.878,429.218,149.729,429.014,150.584L429.014,150.584z"/>
				<radialGradient id="SVGID_15_" cx="334.9736" cy="84.6812" r="258.9493" gradientUnits="userSpaceOnUse">
					<stop  offset="0" style="stop-color:#ED8F06"/>
					<stop  offset="0.3117" style="stop-color:#EB8C09"/>
					<stop  offset="0.5546" style="stop-color:#E68310"/>
					<stop  offset="0.7742" style="stop-color:#DD7417"/>
					<stop  offset="0.9789" style="stop-color:#D15F1C"/>
					<stop  offset="0.995" style="stop-color:#D05D1C"/>
				</radialGradient>
				<path fill-rule="evenodd" clip-rule="evenodd" fill="url(#SVGID_15_)" d="M419.564,148.674c-0.4,0.781-1.354,1.092-2.139,0.693
					l-8.49-4.32c-0.782-0.4-1.098-1.355-0.701-2.135l0,0c0.4-0.791,1.359-1.098,2.141-0.698l8.494,4.325
					C419.65,146.93,419.961,147.889,419.564,148.674L419.564,148.674z"/>
			</g>
			<g>
				<radialGradient id="SVGID_16_" cx="334.9834" cy="84.7104" r="258.8833" gradientUnits="userSpaceOnUse">
					<stop  offset="0" style="stop-color:#ED8F06"/>
					<stop  offset="0.3117" style="stop-color:#EB8C09"/>
					<stop  offset="0.5546" style="stop-color:#E68310"/>
					<stop  offset="0.7742" style="stop-color:#DD7417"/>
					<stop  offset="0.9789" style="stop-color:#D15F1C"/>
					<stop  offset="0.995" style="stop-color:#D05D1C"/>
				</radialGradient>
				<path fill-rule="evenodd" clip-rule="evenodd" fill="url(#SVGID_16_)" d="M410.4,164.266c-0.856,0.198-1.707-0.336-1.904-1.192
					l-2.129-9.288c-0.199-0.855,0.335-1.712,1.191-1.904l0,0c0.855-0.198,1.705,0.335,1.901,1.19l2.132,9.289
					C411.789,163.224,411.256,164.073,410.4,164.266L410.4,164.266z"/>
				<radialGradient id="SVGID_17_" cx="334.9648" cy="84.6826" r="258.9726" gradientUnits="userSpaceOnUse">
					<stop  offset="0" style="stop-color:#ED8F06"/>
					<stop  offset="0.3117" style="stop-color:#EB8C09"/>
					<stop  offset="0.5546" style="stop-color:#E68310"/>
					<stop  offset="0.7742" style="stop-color:#DD7417"/>
					<stop  offset="0.9789" style="stop-color:#D15F1C"/>
					<stop  offset="0.995" style="stop-color:#D05D1C"/>
				</radialGradient>
				<path fill-rule="evenodd" clip-rule="evenodd" fill="url(#SVGID_17_)" d="M407.905,154.952c-0.874-0.01-1.575-0.727-1.569-1.604
					l0.093-9.53c0.01-0.878,0.727-1.582,1.604-1.58l0,0c0.879,0.013,1.58,0.736,1.574,1.607l-0.094,9.53
					C409.506,154.255,408.786,154.959,407.905,154.952L407.905,154.952z"/>
			</g>
		</g>
	</g>
	<g>
		<radialGradient id="SVGID_18_" cx="334.9785" cy="84.7046" r="258.9075" gradientUnits="userSpaceOnUse">
			<stop  offset="0" style="stop-color:#ED8F06"/>
			<stop  offset="0.3117" style="stop-color:#EB8C09"/>
			<stop  offset="0.5546" style="stop-color:#E68310"/>
			<stop  offset="0.7742" style="stop-color:#DD7417"/>
			<stop  offset="0.9789" style="stop-color:#D15F1C"/>
			<stop  offset="0.995" style="stop-color:#D05D1C"/>
		</radialGradient>
		<path fill="url(#SVGID_18_)" d="M342.936,90.993H309.27c0.04,3.909,0.829,7.356,2.368,10.34c1.533,2.983,3.567,5.23,6.112,6.744
			c2.537,1.512,5.351,2.271,8.419,2.271c2.053,0,3.939-0.246,5.634-0.724c1.708-0.483,3.36-1.247,4.958-2.274
			c1.59-1.029,3.064-2.137,4.41-3.306c1.346-1.174,3.088-2.774,5.234-4.79c0.877-0.754,2.141-1.136,3.781-1.136
			c1.765,0,3.188,0.474,4.287,1.449c1.086,0.971,1.637,2.332,1.637,4.097c0,1.549-0.607,3.376-1.826,5.454
			c-1.22,2.079-3.059,4.076-5.52,5.988c-2.459,1.913-5.546,3.502-9.263,4.759c-3.723,1.266-7.997,1.892-12.831,1.892
			c-11.053,0-19.649-3.148-25.786-9.461c-6.139-6.298-9.204-14.842-9.204-25.653c0-5.08,0.757-9.804,2.268-14.154
			c1.514-4.35,3.723-8.082,6.621-11.193c2.903-3.108,6.474-5.491,10.714-7.15c4.251-1.665,8.959-2.496,14.127-2.496
			c6.72,0,12.49,1.416,17.305,4.26c4.809,2.835,8.416,6.499,10.812,11.006c2.392,4.492,3.589,9.074,3.589,13.735
			c0,4.332-1.233,7.133-3.716,8.415C350.92,90.354,347.43,90.993,342.936,90.993z M312.537,86.228l29.256-10.845
			c-1.926-3.991-4.563-6.538-7.906-7.63c-3.346-1.097-7.123-0.871-11.343,0.688c-4.014,1.499-6.927,3.76-8.741,6.802
			C311.997,78.286,311.575,81.945,312.537,86.228z"/>
		<g>
			<radialGradient id="SVGID_19_" cx="334.9805" cy="84.7046" r="258.9034" gradientUnits="userSpaceOnUse">
				<stop  offset="0" style="stop-color:#ED8F06"/>
				<stop  offset="0.3117" style="stop-color:#EB8C09"/>
				<stop  offset="0.5546" style="stop-color:#E68310"/>
				<stop  offset="0.7742" style="stop-color:#DD7417"/>
				<stop  offset="0.9789" style="stop-color:#D15F1C"/>
				<stop  offset="0.995" style="stop-color:#D05D1C"/>
			</radialGradient>
			<path fill-rule="evenodd" clip-rule="evenodd" fill="url(#SVGID_19_)" d="M321.266,145.519c-0.613,2.051-2.773,3.216-4.82,2.608
				l-1.483-0.449c-2.053-0.611-3.216-2.771-2.606-4.824l5.765-19.296c0.607-2.048,2.771-3.215,4.82-2.604l1.486,0.444
				c2.05,0.614,3.213,2.77,2.6,4.82L321.266,145.519z"/>
			<radialGradient id="SVGID_20_" cx="334.9775" cy="84.7153" r="258.8403" gradientUnits="userSpaceOnUse">
				<stop  offset="0" style="stop-color:#ED8F06"/>
				<stop  offset="0.3117" style="stop-color:#EB8C09"/>
				<stop  offset="0.5546" style="stop-color:#E68310"/>
				<stop  offset="0.7742" style="stop-color:#DD7417"/>
				<stop  offset="0.9789" style="stop-color:#D15F1C"/>
				<stop  offset="0.995" style="stop-color:#D05D1C"/>
			</radialGradient>
			<path fill="url(#SVGID_20_)" d="M315.453,134.354c-0.81,2.429-3.443,3.746-5.882,2.935l0,0c-2.433-0.807-3.748-3.443-2.934-5.876
				l1.96-5.883c0.809-2.431,3.44-3.753,5.875-2.934l0,0c2.433,0.813,3.754,3.443,2.945,5.878L315.453,134.354z"/>
			<g>
				<radialGradient id="SVGID_21_" cx="334.9775" cy="84.7007" r="258.9181" gradientUnits="userSpaceOnUse">
					<stop  offset="0" style="stop-color:#ED8F06"/>
					<stop  offset="0.3117" style="stop-color:#EB8C09"/>
					<stop  offset="0.5546" style="stop-color:#E68310"/>
					<stop  offset="0.7742" style="stop-color:#DD7417"/>
					<stop  offset="0.9789" style="stop-color:#D15F1C"/>
					<stop  offset="0.995" style="stop-color:#D05D1C"/>
				</radialGradient>
				<path fill-rule="evenodd" clip-rule="evenodd" fill="url(#SVGID_21_)" d="M346.848,124.451c0.102,0.869-0.516,1.663-1.39,1.768
					l-9.463,1.133c-0.868,0.103-1.662-0.515-1.769-1.388l0,0c-0.099-0.873,0.521-1.662,1.391-1.767l9.461-1.136
					C345.953,122.959,346.742,123.575,346.848,124.451L346.848,124.451z"/>
				<radialGradient id="SVGID_22_" cx="334.9805" cy="84.7061" r="258.8874" gradientUnits="userSpaceOnUse">
					<stop  offset="0" style="stop-color:#ED8F06"/>
					<stop  offset="0.3117" style="stop-color:#EB8C09"/>
					<stop  offset="0.5546" style="stop-color:#E68310"/>
					<stop  offset="0.7742" style="stop-color:#DD7417"/>
					<stop  offset="0.9789" style="stop-color:#D15F1C"/>
					<stop  offset="0.995" style="stop-color:#D05D1C"/>
				</radialGradient>
				<path fill-rule="evenodd" clip-rule="evenodd" fill="url(#SVGID_22_)" d="M337.323,125.94c-0.104,0.877-0.894,1.495-1.765,1.396
					l-9.465-1.101c-0.871-0.103-1.496-0.888-1.396-1.767l0,0c0.102-0.868,0.891-1.489,1.762-1.389l9.469,1.104
					C336.797,124.28,337.42,125.068,337.323,125.94L337.323,125.94z"/>
			</g>
			<g>
				<radialGradient id="SVGID_23_" cx="334.9785" cy="84.6812" r="259.0323" gradientUnits="userSpaceOnUse">
					<stop  offset="0" style="stop-color:#ED8F06"/>
					<stop  offset="0.3117" style="stop-color:#EB8C09"/>
					<stop  offset="0.5546" style="stop-color:#E68310"/>
					<stop  offset="0.7742" style="stop-color:#DD7417"/>
					<stop  offset="0.9789" style="stop-color:#D15F1C"/>
					<stop  offset="0.995" style="stop-color:#D05D1C"/>
				</radialGradient>
				<path fill-rule="evenodd" clip-rule="evenodd" fill="url(#SVGID_23_)" d="M342.284,136.565c-0.36,0.804-1.3,1.156-2.101,0.804
					l-8.687-3.925c-0.8-0.366-1.161-1.307-0.8-2.1l0,0c0.365-0.804,1.303-1.161,2.104-0.795l8.686,3.915
					C342.287,134.831,342.647,135.765,342.284,136.565L342.284,136.565z"/>
				<radialGradient id="SVGID_24_" cx="334.9785" cy="84.6938" r="258.9583" gradientUnits="userSpaceOnUse">
					<stop  offset="0" style="stop-color:#ED8F06"/>
					<stop  offset="0.3117" style="stop-color:#EB8C09"/>
					<stop  offset="0.5546" style="stop-color:#E68310"/>
					<stop  offset="0.7742" style="stop-color:#DD7417"/>
					<stop  offset="0.9789" style="stop-color:#D15F1C"/>
					<stop  offset="0.995" style="stop-color:#D05D1C"/>
				</radialGradient>
				<path fill-rule="evenodd" clip-rule="evenodd" fill="url(#SVGID_24_)" d="M333.357,132.919c-0.539,0.689-1.531,0.82-2.229,0.286
					l-7.536-5.838c-0.693-0.537-0.818-1.533-0.284-2.23l0,0c0.539-0.698,1.539-0.822,2.233-0.279l7.533,5.832
					C333.769,131.224,333.893,132.222,333.357,132.919L333.357,132.919z"/>
			</g>
			<g>
				<radialGradient id="SVGID_25_" cx="334.9746" cy="84.7075" r="258.8911" gradientUnits="userSpaceOnUse">
					<stop  offset="0" style="stop-color:#ED8F06"/>
					<stop  offset="0.3117" style="stop-color:#EB8C09"/>
					<stop  offset="0.5546" style="stop-color:#E68310"/>
					<stop  offset="0.7742" style="stop-color:#DD7417"/>
					<stop  offset="0.9789" style="stop-color:#D15F1C"/>
					<stop  offset="0.995" style="stop-color:#D05D1C"/>
				</radialGradient>
				<path fill-rule="evenodd" clip-rule="evenodd" fill="url(#SVGID_25_)" d="M301.114,155.696c0.304,0.825,1.229,1.242,2.054,0.931
					l8.906-3.374c0.822-0.317,1.231-1.232,0.921-2.049l0,0c-0.307-0.824-1.228-1.237-2.047-0.921l-8.91,3.366
					C301.21,153.965,300.804,154.884,301.114,155.696L301.114,155.696z"/>
				<radialGradient id="SVGID_26_" cx="334.9795" cy="84.6748" r="259.0147" gradientUnits="userSpaceOnUse">
					<stop  offset="0" style="stop-color:#ED8F06"/>
					<stop  offset="0.3117" style="stop-color:#EB8C09"/>
					<stop  offset="0.5546" style="stop-color:#E68310"/>
					<stop  offset="0.7742" style="stop-color:#DD7417"/>
					<stop  offset="0.9789" style="stop-color:#D15F1C"/>
					<stop  offset="0.995" style="stop-color:#D05D1C"/>
				</radialGradient>
				<path fill-rule="evenodd" clip-rule="evenodd" fill="url(#SVGID_26_)" d="M310.861,152.743c0.714,0.51,1.706,0.339,2.215-0.372
					l5.537-7.759c0.506-0.717,0.345-1.71-0.369-2.218l0,0c-0.713-0.516-1.706-0.342-2.215,0.374l-5.541,7.753
					C309.979,151.235,310.148,152.231,310.861,152.743L310.861,152.743z"/>
			</g>
			<g>
				<radialGradient id="SVGID_27_" cx="334.9805" cy="84.6953" r="258.9379" gradientUnits="userSpaceOnUse">
					<stop  offset="0" style="stop-color:#ED8F06"/>
					<stop  offset="0.3117" style="stop-color:#EB8C09"/>
					<stop  offset="0.5546" style="stop-color:#E68310"/>
					<stop  offset="0.7742" style="stop-color:#DD7417"/>
					<stop  offset="0.9789" style="stop-color:#D15F1C"/>
					<stop  offset="0.995" style="stop-color:#D05D1C"/>
				</radialGradient>
				<path fill-rule="evenodd" clip-rule="evenodd" fill="url(#SVGID_27_)" d="M324.771,163.893c0.956,0.091,1.793-0.621,1.867-1.588
					l0.82-10.545c0.073-0.971-0.643-1.833-1.596-1.927l0,0c-0.958-0.09-1.793,0.624-1.864,1.589l-0.816,10.541
					C323.105,162.939,323.816,163.8,324.771,163.893L324.771,163.893z"/>
				<radialGradient id="SVGID_28_" cx="334.9775" cy="84.7021" r="258.9072" gradientUnits="userSpaceOnUse">
					<stop  offset="0" style="stop-color:#ED8F06"/>
					<stop  offset="0.3117" style="stop-color:#EB8C09"/>
					<stop  offset="0.5546" style="stop-color:#E68310"/>
					<stop  offset="0.7742" style="stop-color:#DD7417"/>
					<stop  offset="0.9789" style="stop-color:#D15F1C"/>
					<stop  offset="0.995" style="stop-color:#D05D1C"/>
				</radialGradient>
				<path fill-rule="evenodd" clip-rule="evenodd" fill="url(#SVGID_28_)" d="M327.166,152.461c0.535-0.705,0.391-1.697-0.298-2.229
					l-7.595-5.759c-0.697-0.533-1.699-0.395-2.227,0.305l0,0c-0.536,0.7-0.391,1.693,0.308,2.224l7.585,5.761
					C325.641,153.292,326.639,153.159,327.166,152.461L327.166,152.461z"/>
			</g>
		</g>
	</g>
</g>
</svg>
